<svg id="Calque_2" data-name="Calque 2" xmlns="http://www.w3.org/2000/svg" xmlns:xlink="http://www.w3.org/1999/xlink" viewBox="0 0 2560 1600">
  <defs>
    <linearGradient id="Dégradé_sans_nom_16" data-name="Dégradé sans nom 16" x1="1280" x2="1280" y2="1600" gradientUnits="userSpaceOnUse">
      <stop offset="0" stop-color="#acc7cc"/>
      <stop offset="1" stop-color="#536c72"/>
    </linearGradient>
  </defs>
  <title>background</title>
  <rect width="2560" height="1600" style="fill: url(#Dégradé_sans_nom_16)"/>
  <g>
    <polygon points="1879.996 1298.34 2126.694 723.079 2374.433 1294.737 1879.996 1298.34" style="fill: #e6e8e7"/>
    <polygon points="2126.694 723.079 2067.632 860.803 2097.468 833.713 2111.404 860.484 2143.742 826.859 2166.793 860.08 2179.294 844.453 2126.694 723.079" style="fill: #fff"/>
    <polygon points="2126.694 723.079 2130.873 1296.512 1879.996 1298.34 2126.694 723.079" style="fill: #010101;opacity: 0.09"/>
  </g>
  <polygon points="1879.996 1298.34 2126.694 723.079 2374.433 1294.737 1879.996 1298.34" style="fill: #010101;opacity: 0.12"/>
  <line y1="1033.33411" y2="1550.2395" style="fill: #7485ba"/>
  <g>
    <polygon points="197.729 914.782 180.182 936.716 147.828 890.087 125.133 913.685 129.765 1549.294 471.626 1546.803 197.729 914.782" style="fill: #e6e8e7"/>
    <polygon points="40.999 937.73 40.999 937.73 123.9 744.42 40.999 937.73" style="fill: #fff"/>
    <polygon points="147.828 890.087 180.182 936.716 197.729 914.782 123.9 744.42 125.133 913.685 147.828 890.087" style="fill: #fff"/>
    <polygon points="102.438 937.283 82.877 899.707 40.999 937.73 0 1033.334 0 1550.24 129.765 1549.294 125.133 913.685 102.438 937.283" style="fill: #e6e8e7"/>
    <polygon points="102.438 937.283 82.877 899.707 40.999 937.73 0 1033.334 0 1550.24 129.765 1549.294 125.133 913.685 102.438 937.283" style="fill: #010101;opacity: 0.09"/>
    <polygon points="102.438 937.283 125.133 913.685 123.9 744.42 40.999 937.73 82.877 899.707 102.438 937.283" style="fill: #fff"/>
    <polygon points="102.438 937.283 125.133 913.685 123.9 744.42 40.999 937.73 82.877 899.707 102.438 937.283" style="fill: #010101;opacity: 0.09"/>
  </g>
  <polygon points="1975.279 1550.447 1603.855 1548.402 1606.402 82.397 1977.826 84.441 1975.279 1550.447" style="fill: #d7d6d6"/>
  <g>
    <rect x="1634.53599" y="1355.38094" width="86.59098" height="5.51022" transform="translate(7.50216 -9.21613) rotate(0.31542)" style="fill: #fff"/>
    <rect x="1640.09522" y="1360.89183" width="75.19743" height="182.43065" transform="matrix(0.99998, 0.00551, -0.00551, 0.99998, 8.01949, -9.21395)" style="fill: #3a3b3b"/>
    <rect x="1637.07101" y="1355.78345" width="3.03828" height="187.32372" transform="translate(8.00424 -8.99872) rotate(0.31542)" style="fill: #fff"/>
    <rect x="1714.92666" y="1356.21206" width="3.03828" height="187.32372" transform="translate(8.00778 -9.42732) rotate(0.31542)" style="fill: #fff"/>
  </g>
  <rect x="1631.0638" y="1534.03074" width="93.42711" height="14.81162" transform="translate(-15.25315 16.76898) rotate(-0.57006)" style="fill: #73bbad"/>
  <g>
    <rect x="1744.12686" y="1485.94271" width="93.42711" height="6.909" transform="translate(8.22649 -9.83627) rotate(0.31542)" style="fill: #fff"/>
    <g>
      <rect x="1748.64149" y="1356.44342" width="86.59098" height="5.51022" transform="translate(7.50974 -9.84428) rotate(0.31542)" style="fill: #fff"/>
      <rect x="1754.35766" y="1361.95473" width="75.19743" height="125.41733" transform="matrix(0.99998, 0.00551, -0.00551, 0.99998, 7.87014, -9.8434)" style="fill: #3a3b3b"/>
      <rect x="1751.33344" y="1356.84636" width="3.03828" height="130.31039" transform="translate(7.85489 -9.62816) rotate(0.31542)" style="fill: #fff"/>
      <rect x="1829.1891" y="1357.27497" width="3.03828" height="130.31039" transform="translate(7.85843 -10.05676) rotate(0.31542)" style="fill: #fff"/>
    </g>
  </g>
  <g>
    <rect x="1860.34107" y="1485.94271" width="93.42711" height="6.909" transform="translate(8.22825 -10.47605) rotate(0.31542)" style="fill: #fff"/>
    <g>
      <rect x="1864.8557" y="1356.44342" width="86.59098" height="5.51022" transform="translate(7.5115 -10.48406) rotate(0.31542)" style="fill: #fff"/>
      <rect x="1870.57187" y="1361.95473" width="75.19743" height="125.41733" transform="matrix(0.99998, 0.00551, -0.00551, 0.99998, 7.8719, -10.48317)" style="fill: #3a3b3b"/>
      <rect x="1867.54765" y="1356.84636" width="3.03828" height="130.31039" transform="translate(7.85665 -10.26794) rotate(0.31542)" style="fill: #fff"/>
      <rect x="1945.40331" y="1357.27497" width="3.03828" height="130.31039" transform="translate(7.86019 -10.69654) rotate(0.31542)" style="fill: #fff"/>
    </g>
  </g>
  <g>
    <rect x="1630.98039" y="1304.78526" width="93.42711" height="6.909" transform="translate(7.22748 -9.21613) rotate(0.31542)" style="fill: #fff"/>
    <g>
      <rect x="1635.49502" y="1175.28598" width="86.59098" height="5.51022" transform="translate(6.51073 -9.22414) rotate(0.31542)" style="fill: #fff"/>
      <rect x="1641.21118" y="1180.79729" width="75.19743" height="125.41733" transform="translate(6.87112 -9.22325) rotate(0.31542)" style="fill: #3a3b3b"/>
      <rect x="1638.18697" y="1175.68891" width="3.03828" height="130.31039" transform="translate(6.85588 -9.00802) rotate(0.31542)" style="fill: #fff"/>
      <rect x="1716.04262" y="1176.11753" width="3.03828" height="130.31039" transform="translate(6.85942 -9.43662) rotate(0.31542)" style="fill: #fff"/>
    </g>
  </g>
  <g>
    <rect x="1744.12686" y="1304.78526" width="93.42711" height="6.909" transform="translate(7.22919 -9.83902) rotate(0.31542)" style="fill: #fff"/>
    <g>
      <rect x="1748.64149" y="1175.28598" width="86.59098" height="5.51022" transform="translate(6.51244 -9.84703) rotate(0.31542)" style="fill: #fff"/>
      <rect x="1754.35766" y="1180.79729" width="75.19743" height="125.41733" transform="translate(6.87284 -9.84614) rotate(0.31542)" style="fill: #3a3b3b"/>
      <rect x="1751.33344" y="1175.68891" width="3.03828" height="130.31039" transform="translate(6.85759 -9.63091) rotate(0.31542)" style="fill: #fff"/>
      <rect x="1829.1891" y="1176.11753" width="3.03828" height="130.31039" transform="translate(6.86113 -10.05951) rotate(0.31542)" style="fill: #fff"/>
    </g>
  </g>
  <g>
    <rect x="1860.34107" y="1304.78526" width="93.42711" height="6.909" transform="translate(7.23095 -10.47879) rotate(0.31542)" style="fill: #fff"/>
    <g>
      <rect x="1864.8557" y="1175.28598" width="86.59098" height="5.51022" transform="translate(6.5142 -10.4868) rotate(0.31542)" style="fill: #fff"/>
      <rect x="1870.57187" y="1180.79729" width="75.19743" height="125.41733" transform="translate(6.8746 -10.48592) rotate(0.31542)" style="fill: #3a3b3b"/>
      <rect x="1867.54765" y="1175.68891" width="3.03828" height="130.31039" transform="translate(6.85935 -10.27068) rotate(0.31542)" style="fill: #fff"/>
      <rect x="1945.40331" y="1176.11753" width="3.03828" height="130.31039" transform="translate(6.86289 -10.69929) rotate(0.31542)" style="fill: #fff"/>
    </g>
  </g>
  <g>
    <rect x="1630.98039" y="1111.09491" width="93.42711" height="6.909" transform="matrix(0.99998, 0.00551, -0.00551, 0.99998, 6.16118, -9.21906)" style="fill: #fff"/>
    <g>
      <rect x="1635.49502" y="981.59563" width="86.59098" height="5.51022" transform="translate(5.44444 -9.22707) rotate(0.31542)" style="fill: #fff"/>
      <rect x="1641.21118" y="987.10694" width="75.19743" height="125.41733" transform="translate(5.80483 -9.22619) rotate(0.31542)" style="fill: #3a3b3b"/>
      <rect x="1638.18697" y="981.99857" width="3.03828" height="130.31039" transform="translate(5.78958 -9.01096) rotate(0.31542)" style="fill: #fff"/>
      <rect x="1716.04262" y="982.42718" width="3.03828" height="130.31039" transform="translate(5.79312 -9.43956) rotate(0.31542)" style="fill: #fff"/>
    </g>
  </g>
  <g>
    <rect x="1744.12686" y="1111.09491" width="93.42711" height="6.909" transform="matrix(0.99998, 0.00551, -0.00551, 0.99998, 6.1629, -9.84195)" style="fill: #fff"/>
    <g>
      <rect x="1748.64149" y="981.59563" width="86.59098" height="5.51022" transform="translate(5.44615 -9.84996) rotate(0.31542)" style="fill: #fff"/>
      <rect x="1754.35766" y="987.10694" width="75.19743" height="125.41733" transform="translate(5.80654 -9.84908) rotate(0.31542)" style="fill: #3a3b3b"/>
      <rect x="1751.33344" y="981.99857" width="3.03828" height="130.31039" transform="translate(5.7913 -9.63384) rotate(0.31542)" style="fill: #fff"/>
      <rect x="1829.1891" y="982.42718" width="3.03828" height="130.31039" transform="translate(5.79484 -10.06244) rotate(0.31542)" style="fill: #fff"/>
    </g>
  </g>
  <g>
    <rect x="1860.34107" y="1111.09491" width="93.42711" height="6.909" transform="matrix(0.99998, 0.00551, -0.00551, 0.99998, 6.16466, -10.48173)" style="fill: #fff"/>
    <g>
      <rect x="1864.8557" y="981.59563" width="86.59098" height="5.51022" transform="translate(5.44791 -10.48974) rotate(0.31542)" style="fill: #fff"/>
      <rect x="1870.57187" y="987.10694" width="75.19743" height="125.41733" transform="translate(5.8083 -10.48885) rotate(0.31542)" style="fill: #3a3b3b"/>
      <rect x="1867.54765" y="981.99857" width="3.03828" height="130.31039" transform="translate(5.79306 -10.27362) rotate(0.31542)" style="fill: #fff"/>
      <rect x="1945.40331" y="982.42718" width="3.03828" height="130.31039" transform="translate(5.7966 -10.70222) rotate(0.31542)" style="fill: #fff"/>
    </g>
  </g>
  <g>
    <rect x="1630.98039" y="917.40457" width="93.42711" height="6.909" transform="matrix(0.99998, 0.00551, -0.00551, 0.99998, 5.09489, -9.222)" style="fill: #fff"/>
    <g>
      <rect x="1635.49502" y="787.90528" width="86.59098" height="5.51022" transform="translate(4.37814 -9.23001) rotate(0.31542)" style="fill: #fff"/>
      <rect x="1641.21118" y="793.4166" width="75.19743" height="125.41733" transform="translate(4.73854 -9.22912) rotate(0.31542)" style="fill: #3a3b3b"/>
      <rect x="1638.18697" y="788.30822" width="3.03828" height="130.31039" transform="translate(4.72329 -9.01389) rotate(0.31542)" style="fill: #fff"/>
      <rect x="1716.04262" y="788.73683" width="3.03828" height="130.31039" transform="translate(4.72683 -9.44249) rotate(0.31542)" style="fill: #fff"/>
    </g>
  </g>
  <g>
    <rect x="1744.12686" y="917.40457" width="93.42711" height="6.909" transform="matrix(0.99998, 0.00551, -0.00551, 0.99998, 5.0966, -9.84489)" style="fill: #fff"/>
    <g>
      <rect x="1748.64149" y="787.90528" width="86.59098" height="5.51022" transform="translate(4.37986 -9.8529) rotate(0.31542)" style="fill: #fff"/>
      <rect x="1754.35766" y="793.4166" width="75.19743" height="125.41733" transform="translate(4.74025 -9.85201) rotate(0.31542)" style="fill: #3a3b3b"/>
      <rect x="1751.33344" y="788.30822" width="3.03828" height="130.31039" transform="translate(4.725 -9.63678) rotate(0.31542)" style="fill: #fff"/>
      <rect x="1829.1891" y="788.73683" width="3.03828" height="130.31039" transform="translate(4.72854 -10.06538) rotate(0.31542)" style="fill: #fff"/>
    </g>
  </g>
  <g>
    <rect x="1860.34107" y="917.40457" width="93.42711" height="6.909" transform="matrix(0.99998, 0.00551, -0.00551, 0.99998, 5.09836, -10.48466)" style="fill: #fff"/>
    <g>
      <rect x="1864.8557" y="787.90528" width="86.59098" height="5.51022" transform="translate(4.38162 -10.49267) rotate(0.31542)" style="fill: #fff"/>
      <rect x="1870.57187" y="793.4166" width="75.19743" height="125.41733" transform="translate(4.74201 -10.49179) rotate(0.31542)" style="fill: #3a3b3b"/>
      <rect x="1867.54765" y="788.30822" width="3.03828" height="130.31039" transform="translate(4.72676 -10.27656) rotate(0.31542)" style="fill: #fff"/>
      <rect x="1945.40331" y="788.73683" width="3.03828" height="130.31039" transform="translate(4.7303 -10.70516) rotate(0.31542)" style="fill: #fff"/>
    </g>
  </g>
  <g>
    <rect x="1630.98039" y="723.71422" width="93.42711" height="6.909" transform="translate(4.02859 -9.22493) rotate(0.31542)" style="fill: #fff"/>
    <g>
      <rect x="1635.49502" y="594.21493" width="86.59098" height="5.51022" transform="translate(3.31185 -9.23294) rotate(0.31542)" style="fill: #fff"/>
      <rect x="1641.21118" y="599.72625" width="75.19743" height="125.41733" transform="translate(3.67224 -9.23206) rotate(0.31542)" style="fill: #3a3b3b"/>
      <rect x="1638.18697" y="594.61787" width="3.03828" height="130.31039" transform="translate(3.657 -9.01683) rotate(0.31542)" style="fill: #fff"/>
      <rect x="1716.04262" y="595.04648" width="3.03828" height="130.31039" transform="translate(3.66053 -9.44543) rotate(0.31542)" style="fill: #fff"/>
    </g>
  </g>
  <g>
    <rect x="1744.12686" y="723.71422" width="93.42711" height="6.909" transform="translate(4.03031 -9.84782) rotate(0.31542)" style="fill: #fff"/>
    <g>
      <rect x="1748.64149" y="594.21493" width="86.59098" height="5.51022" transform="translate(3.31356 -9.85583) rotate(0.31542)" style="fill: #fff"/>
      <rect x="1754.35766" y="599.72625" width="75.19743" height="125.41733" transform="translate(3.67396 -9.85495) rotate(0.31542)" style="fill: #3a3b3b"/>
      <rect x="1751.33344" y="594.61787" width="3.03828" height="130.31039" transform="translate(3.65871 -9.63971) rotate(0.31542)" style="fill: #fff"/>
      <rect x="1829.1891" y="595.04648" width="3.03828" height="130.31039" transform="translate(3.66225 -10.06831) rotate(0.31542)" style="fill: #fff"/>
    </g>
  </g>
  <g>
    <rect x="1860.34107" y="723.71422" width="93.42711" height="6.909" transform="translate(4.03207 -10.4876) rotate(0.31542)" style="fill: #fff"/>
    <g>
      <rect x="1864.8557" y="594.21493" width="86.59098" height="5.51022" transform="translate(3.31532 -10.49561) rotate(0.31542)" style="fill: #fff"/>
      <rect x="1870.57187" y="599.72625" width="75.19743" height="125.41733" transform="translate(3.67572 -10.49472) rotate(0.31542)" style="fill: #3a3b3b"/>
      <rect x="1867.54765" y="594.61787" width="3.03828" height="130.31039" transform="translate(3.66047 -10.27949) rotate(0.31542)" style="fill: #fff"/>
      <rect x="1945.40331" y="595.04648" width="3.03828" height="130.31039" transform="translate(3.66401 -10.70809) rotate(0.31542)" style="fill: #fff"/>
    </g>
  </g>
  <g>
    <rect x="1630.98039" y="530.02387" width="93.42711" height="6.909" transform="matrix(0.99998, 0.00551, -0.00551, 0.99998, 2.9623, -9.22787)" style="fill: #fff"/>
    <g>
      <rect x="1635.49502" y="400.52458" width="86.59098" height="5.51022" transform="translate(2.24555 -9.23588) rotate(0.31542)" style="fill: #fff"/>
      <rect x="1641.21118" y="406.0359" width="75.19743" height="125.41733" transform="translate(2.60595 -9.23499) rotate(0.31542)" style="fill: #3a3b3b"/>
      <rect x="1638.18697" y="400.92752" width="3.03828" height="130.31039" transform="translate(2.5907 -9.01976) rotate(0.31542)" style="fill: #fff"/>
      <rect x="1716.04262" y="401.35613" width="3.03828" height="130.31039" transform="translate(2.59424 -9.44836) rotate(0.31542)" style="fill: #fff"/>
    </g>
  </g>
  <g>
    <rect x="1744.12686" y="530.02387" width="93.42711" height="6.909" transform="matrix(0.99998, 0.00551, -0.00551, 0.99998, 2.96401, -9.85076)" style="fill: #fff"/>
    <g>
      <rect x="1748.64149" y="400.52458" width="86.59098" height="5.51022" transform="translate(2.24727 -9.85877) rotate(0.31542)" style="fill: #fff"/>
      <rect x="1754.35766" y="406.0359" width="75.19743" height="125.41733" transform="translate(2.60766 -9.85788) rotate(0.31542)" style="fill: #3a3b3b"/>
      <rect x="1751.33344" y="400.92752" width="3.03828" height="130.31039" transform="translate(2.59242 -9.64265) rotate(0.31542)" style="fill: #fff"/>
      <rect x="1829.1891" y="401.35613" width="3.03828" height="130.31039" transform="translate(2.59596 -10.07125) rotate(0.31542)" style="fill: #fff"/>
    </g>
  </g>
  <g>
    <rect x="1860.34107" y="530.02387" width="93.42711" height="6.909" transform="matrix(0.99998, 0.00551, -0.00551, 0.99998, 2.96578, -10.49053)" style="fill: #fff"/>
    <g>
      <rect x="1864.8557" y="400.52458" width="86.59098" height="5.51022" transform="translate(2.24903 -10.49854) rotate(0.31542)" style="fill: #fff"/>
      <rect x="1870.57187" y="406.0359" width="75.19743" height="125.41733" transform="translate(2.60942 -10.49766) rotate(0.31542)" style="fill: #3a3b3b"/>
      <rect x="1867.54765" y="400.92752" width="3.03828" height="130.31039" transform="translate(2.59418 -10.28243) rotate(0.31542)" style="fill: #fff"/>
      <rect x="1945.40331" y="401.35613" width="3.03828" height="130.31039" transform="translate(2.59772 -10.71103) rotate(0.31542)" style="fill: #fff"/>
    </g>
  </g>
  <g>
    <rect x="1630.98039" y="336.33352" width="93.42711" height="6.909" transform="matrix(0.99998, 0.00551, -0.00551, 0.99998, 1.89601, -9.2308)" style="fill: #fff"/>
    <g>
      <rect x="1635.49502" y="206.83424" width="86.59098" height="5.51022" transform="translate(1.17926 -9.23881) rotate(0.31542)" style="fill: #fff"/>
      <rect x="1641.21118" y="212.34555" width="75.19743" height="125.41733" transform="translate(1.53965 -9.23793) rotate(0.31542)" style="fill: #3a3b3b"/>
      <rect x="1638.18697" y="207.23717" width="3.03828" height="130.31039" transform="translate(1.52441 -9.0227) rotate(0.31542)" style="fill: #fff"/>
      <rect x="1716.04262" y="207.66579" width="3.03828" height="130.31039" transform="translate(1.52795 -9.4513) rotate(0.31542)" style="fill: #fff"/>
    </g>
  </g>
  <g>
    <rect x="1744.12686" y="336.33352" width="93.42711" height="6.909" transform="matrix(0.99998, 0.00551, -0.00551, 0.99998, 1.89772, -9.85369)" style="fill: #fff"/>
    <g>
      <rect x="1748.64149" y="206.83424" width="86.59098" height="5.51022" transform="translate(1.18097 -9.8617) rotate(0.31542)" style="fill: #fff"/>
      <rect x="1754.35766" y="212.34555" width="75.19743" height="125.41733" transform="translate(1.54137 -9.86082) rotate(0.31542)" style="fill: #3a3b3b"/>
      <rect x="1751.33344" y="207.23717" width="3.03828" height="130.31039" transform="translate(1.52612 -9.64558) rotate(0.31542)" style="fill: #fff"/>
      <rect x="1829.1891" y="207.66579" width="3.03828" height="130.31039" transform="translate(1.52966 -10.07418) rotate(0.31542)" style="fill: #fff"/>
    </g>
  </g>
  <g>
    <rect x="1860.34107" y="336.33352" width="93.42711" height="6.909" transform="matrix(0.99998, 0.00551, -0.00551, 0.99998, 1.89948, -10.49347)" style="fill: #fff"/>
    <g>
      <rect x="1864.8557" y="206.83424" width="86.59098" height="5.51022" transform="translate(1.18274 -10.50148) rotate(0.31542)" style="fill: #fff"/>
      <rect x="1870.57187" y="212.34555" width="75.19743" height="125.41733" transform="translate(1.54313 -10.50059) rotate(0.31542)" style="fill: #3a3b3b"/>
      <rect x="1867.54765" y="207.23717" width="3.03828" height="130.31039" transform="translate(1.52788 -10.28536) rotate(0.31542)" style="fill: #fff"/>
      <rect x="1945.40331" y="207.66579" width="3.03828" height="130.31039" transform="translate(1.53142 -10.71396) rotate(0.31542)" style="fill: #fff"/>
    </g>
  </g>
  <rect x="1606.27602" y="140.91092" width="371.54972" height="13.92048" style="fill: #010101;opacity: 0.09"/>
  <rect x="1606.3631" y="97.62543" width="371.46264" height="13.92048" style="fill: #010101;opacity: 0.09"/>
  <rect x="1592.45242" y="127.24208" width="395.94717" height="20.51044" style="fill: #7485ba"/>
  <rect x="1592.45242" y="63.50259" width="395.94717" height="37.78809" style="fill: #7485ba"/>
  <polygon points="123.9 744.42 0 1033.334 0 1550.24 471.626 1546.803 123.9 744.42" style="fill: #010101;opacity: 0.12"/>
  <g>
    <polygon points="292.701 1549.22 832.773 289.858 1375.121 1541.333 292.701 1549.22" style="fill: #e6e8e7"/>
    <polygon points="832.773 289.858 703.473 591.364 768.79 532.059 799.299 590.666 870.094 517.055 920.556 589.782 947.924 555.571 832.773 289.858" style="fill: #fff"/>
    <polygon points="832.773 289.858 841.921 1545.218 292.701 1549.22 832.773 289.858" style="fill: #010101;opacity: 0.09"/>
  </g>
  <g>
    <polygon points="2559.855 744.725 2532.356 773.318 2537.968 1543.471 2560 1543.311 2560 744.935 2559.855 744.725" style="fill: #e6e8e7"/>
    <polygon points="2560 635.462 2530.861 568.224 2560 635.462 2560 635.462" style="fill: #fff"/>
    <polygon points="2559.855 744.725 2560 744.935 2560 635.462 2530.861 568.224 2532.356 773.318 2559.855 744.725" style="fill: #fff"/>
    <polygon points="2504.857 801.911 2481.155 756.382 2430.413 802.454 2111.297 1546.581 2537.968 1543.471 2532.356 773.318 2504.857 801.911" style="fill: #e6e8e7"/>
    <polygon points="2504.857 801.911 2481.155 756.382 2430.413 802.454 2111.297 1546.581 2537.968 1543.471 2532.356 773.318 2504.857 801.911" style="fill: #010101;opacity: 0.09"/>
    <polygon points="2504.857 801.911 2532.356 773.318 2530.861 568.224 2430.413 802.454 2481.155 756.382 2504.857 801.911" style="fill: #fff"/>
    <polygon points="2504.857 801.911 2532.356 773.318 2530.861 568.224 2430.413 802.454 2481.155 756.382 2504.857 801.911" style="fill: #010101;opacity: 0.09"/>
  </g>
  <polygon points="888.357 1330.979 397.205 1328.934 399.752 443.324 890.904 445.369 888.357 1330.979" style="fill: #ed7546"/>
  <g>
    <rect x="427.88608" y="1135.91291" width="86.59098" height="5.51022" transform="translate(6.27568 -2.57667) rotate(0.31542)" style="fill: #fff"/>
    <rect x="433.44531" y="1141.4238" width="75.19743" height="182.43065" transform="matrix(0.99998, 0.00551, -0.00551, 0.99998, 6.793, -2.57449)" style="fill: #3a3b3b"/>
    <rect x="430.42109" y="1136.31542" width="3.03828" height="187.32372" transform="translate(6.77775 -2.35926) rotate(0.31542)" style="fill: #fff"/>
    <rect x="508.27675" y="1136.74403" width="3.03828" height="187.32372" transform="translate(6.78129 -2.78786) rotate(0.31542)" style="fill: #fff"/>
  </g>
  <rect x="424.41389" y="1314.56271" width="93.42711" height="14.81162" transform="translate(-13.12932 4.75281) rotate(-0.57006)" style="fill: #f3f3f3"/>
  <g>
    <rect x="537.47694" y="1266.47468" width="93.42711" height="6.909" transform="translate(7 -3.19681) rotate(0.31542)" style="fill: #fff"/>
    <g>
      <rect x="541.99157" y="1136.97539" width="86.59098" height="5.51022" transform="translate(6.28325 -3.20482) rotate(0.31542)" style="fill: #fff"/>
      <rect x="547.70774" y="1142.48671" width="75.19743" height="125.41733" transform="matrix(0.99998, 0.00551, -0.00551, 0.99998, 6.64365, -3.20394)" style="fill: #3a3b3b"/>
      <rect x="544.68352" y="1137.37833" width="3.03828" height="130.31039" transform="translate(6.6284 -2.9887) rotate(0.31542)" style="fill: #fff"/>
      <rect x="622.53918" y="1137.80694" width="3.03828" height="130.31039" transform="translate(6.63194 -3.4173) rotate(0.31542)" style="fill: #fff"/>
    </g>
  </g>
  <g>
    <rect x="653.69115" y="1266.47468" width="93.42711" height="6.909" transform="translate(7.00176 -3.83659) rotate(0.31542)" style="fill: #fff"/>
    <g>
      <rect x="658.20578" y="1136.97539" width="86.59098" height="5.51022" transform="translate(6.28501 -3.8446) rotate(0.31542)" style="fill: #fff"/>
      <rect x="663.92195" y="1142.48671" width="75.19743" height="125.41733" transform="matrix(0.99998, 0.00551, -0.00551, 0.99998, 6.64541, -3.84371)" style="fill: #3a3b3b"/>
      <rect x="660.89773" y="1137.37833" width="3.03828" height="130.31039" transform="translate(6.63016 -3.62848) rotate(0.31542)" style="fill: #fff"/>
      <rect x="738.75339" y="1137.80694" width="3.03828" height="130.31039" transform="translate(6.6337 -4.05708) rotate(0.31542)" style="fill: #fff"/>
    </g>
  </g>
  <g>
    <rect x="769.90536" y="1266.47468" width="93.42711" height="6.909" transform="translate(7.00352 -4.47636) rotate(0.31542)" style="fill: #fff"/>
    <g>
      <rect x="774.41999" y="1136.97539" width="86.59098" height="5.51022" transform="translate(6.28678 -4.48437) rotate(0.31542)" style="fill: #fff"/>
      <rect x="780.13616" y="1142.48671" width="75.19743" height="125.41733" transform="matrix(0.99998, 0.00551, -0.00551, 0.99998, 6.64717, -4.48349)" style="fill: #3a3b3b"/>
      <rect x="777.11194" y="1137.37833" width="3.03828" height="130.31039" transform="translate(6.63192 -4.26826) rotate(0.31542)" style="fill: #fff"/>
      <rect x="854.9676" y="1137.80694" width="3.03828" height="130.31039" transform="translate(6.63546 -4.69686) rotate(0.31542)" style="fill: #fff"/>
    </g>
  </g>
  <g>
    <rect x="424.33047" y="1082.66183" width="93.42711" height="6.909" transform="matrix(0.99998, 0.00551, -0.00551, 0.99998, 5.98637, -2.57671)" style="fill: #fff"/>
    <g>
      <rect x="428.8451" y="953.16254" width="86.59098" height="5.51022" transform="translate(5.26962 -2.58472) rotate(0.31542)" style="fill: #fff"/>
      <rect x="434.56127" y="958.67385" width="75.19743" height="125.41733" transform="translate(5.63002 -2.58383) rotate(0.31542)" style="fill: #3a3b3b"/>
      <rect x="431.53705" y="953.56548" width="3.03828" height="130.31039" transform="translate(5.61477 -2.3686) rotate(0.31542)" style="fill: #fff"/>
      <rect x="509.39271" y="953.99409" width="3.03828" height="130.31039" transform="translate(5.61831 -2.7972) rotate(0.31542)" style="fill: #fff"/>
    </g>
  </g>
  <g>
    <rect x="537.47694" y="1085.31724" width="93.42711" height="6.909" transform="translate(6.0027 -3.19956) rotate(0.31542)" style="fill: #fff"/>
    <g>
      <rect x="541.99157" y="955.81795" width="86.59098" height="5.51022" transform="translate(5.28596 -3.20757) rotate(0.31542)" style="fill: #fff"/>
      <rect x="547.70774" y="961.32927" width="75.19743" height="125.41733" transform="translate(5.64635 -3.20668) rotate(0.31542)" style="fill: #3a3b3b"/>
      <rect x="544.68352" y="956.22089" width="3.03828" height="130.31039" transform="translate(5.6311 -2.99145) rotate(0.31542)" style="fill: #fff"/>
      <rect x="622.53918" y="956.6495" width="3.03828" height="130.31039" transform="translate(5.63464 -3.42005) rotate(0.31542)" style="fill: #fff"/>
    </g>
  </g>
  <g>
    <rect x="653.69115" y="1085.31724" width="93.42711" height="6.909" transform="translate(6.00446 -3.83933) rotate(0.31542)" style="fill: #fff"/>
    <g>
      <rect x="658.20578" y="955.81795" width="86.59098" height="5.51022" transform="translate(5.28772 -3.84734) rotate(0.31542)" style="fill: #fff"/>
      <rect x="663.92195" y="961.32927" width="75.19743" height="125.41733" transform="translate(5.64811 -3.84646) rotate(0.31542)" style="fill: #3a3b3b"/>
      <rect x="660.89773" y="956.22089" width="3.03828" height="130.31039" transform="translate(5.63286 -3.63123) rotate(0.31542)" style="fill: #fff"/>
      <rect x="738.75339" y="956.6495" width="3.03828" height="130.31039" transform="translate(5.6364 -4.05983) rotate(0.31542)" style="fill: #fff"/>
    </g>
  </g>
  <g>
    <rect x="769.90536" y="1085.31724" width="93.42711" height="6.909" transform="translate(6.00622 -4.47911) rotate(0.31542)" style="fill: #fff"/>
    <g>
      <rect x="774.41999" y="955.81795" width="86.59098" height="5.51022" transform="translate(5.28948 -4.48712) rotate(0.31542)" style="fill: #fff"/>
      <rect x="780.13616" y="961.32927" width="75.19743" height="125.41733" transform="translate(5.64987 -4.48623) rotate(0.31542)" style="fill: #3a3b3b"/>
      <rect x="777.11194" y="956.22089" width="3.03828" height="130.31039" transform="translate(5.63462 -4.271) rotate(0.31542)" style="fill: #fff"/>
      <rect x="854.9676" y="956.6495" width="3.03828" height="130.31039" transform="translate(5.63816 -4.6996) rotate(0.31542)" style="fill: #fff"/>
    </g>
  </g>
  <g>
    <rect x="424.33047" y="891.62689" width="93.42711" height="6.909" transform="matrix(0.99998, 0.00551, -0.00551, 0.99998, 4.93469, -2.5796)" style="fill: #fff"/>
    <g>
      <rect x="428.8451" y="762.1276" width="86.59098" height="5.51022" transform="translate(4.21795 -2.58761) rotate(0.31542)" style="fill: #fff"/>
      <rect x="434.56127" y="767.63892" width="75.19743" height="125.41733" transform="translate(4.57834 -2.58673) rotate(0.31542)" style="fill: #3a3b3b"/>
      <rect x="431.53705" y="762.53054" width="3.03828" height="130.31039" transform="translate(4.56309 -2.3715) rotate(0.31542)" style="fill: #fff"/>
      <rect x="509.39271" y="762.95915" width="3.03828" height="130.31039" transform="translate(4.56663 -2.8001) rotate(0.31542)" style="fill: #fff"/>
    </g>
  </g>
  <g>
    <rect x="537.47694" y="891.62689" width="93.42711" height="6.909" transform="matrix(0.99998, 0.00551, -0.00551, 0.99998, 4.93641, -3.20249)" style="fill: #fff"/>
    <g>
      <rect x="541.99157" y="762.1276" width="86.59098" height="5.51022" transform="translate(4.21966 -3.2105) rotate(0.31542)" style="fill: #fff"/>
      <rect x="547.70774" y="767.63892" width="75.19743" height="125.41733" transform="translate(4.58006 -3.20962) rotate(0.31542)" style="fill: #3a3b3b"/>
      <rect x="544.68352" y="762.53054" width="3.03828" height="130.31039" transform="translate(4.56481 -2.99438) rotate(0.31542)" style="fill: #fff"/>
      <rect x="622.53918" y="762.95915" width="3.03828" height="130.31039" transform="translate(4.56835 -3.42298) rotate(0.31542)" style="fill: #fff"/>
    </g>
  </g>
  <g>
    <rect x="653.69115" y="891.62689" width="93.42711" height="6.909" transform="matrix(0.99998, 0.00551, -0.00551, 0.99998, 4.93817, -3.84227)" style="fill: #fff"/>
    <g>
      <rect x="658.20578" y="762.1276" width="86.59098" height="5.51022" transform="translate(4.22142 -3.85028) rotate(0.31542)" style="fill: #fff"/>
      <rect x="663.92195" y="767.63892" width="75.19743" height="125.41733" transform="translate(4.58182 -3.84939) rotate(0.31542)" style="fill: #3a3b3b"/>
      <rect x="660.89773" y="762.53054" width="3.03828" height="130.31039" transform="translate(4.56657 -3.63416) rotate(0.31542)" style="fill: #fff"/>
      <rect x="738.75339" y="762.95915" width="3.03828" height="130.31039" transform="translate(4.57011 -4.06276) rotate(0.31542)" style="fill: #fff"/>
    </g>
  </g>
  <g>
    <rect x="769.90536" y="891.62689" width="93.42711" height="6.909" transform="matrix(0.99998, 0.00551, -0.00551, 0.99998, 4.93993, -4.48204)" style="fill: #fff"/>
    <g>
      <rect x="774.41999" y="762.1276" width="86.59098" height="5.51022" transform="translate(4.22318 -4.49005) rotate(0.31542)" style="fill: #fff"/>
      <rect x="780.13616" y="767.63892" width="75.19743" height="125.41733" transform="translate(4.58358 -4.48917) rotate(0.31542)" style="fill: #3a3b3b"/>
      <rect x="777.11194" y="762.53054" width="3.03828" height="130.31039" transform="translate(4.56833 -4.27394) rotate(0.31542)" style="fill: #fff"/>
      <rect x="854.9676" y="762.95915" width="3.03828" height="130.31039" transform="translate(4.57187 -4.70254) rotate(0.31542)" style="fill: #fff"/>
    </g>
  </g>
  <g>
    <rect x="424.33047" y="697.93654" width="93.42711" height="6.909" transform="matrix(0.99998, 0.00551, -0.00551, 0.99998, 3.8684, -2.58254)" style="fill: #fff"/>
    <g>
      <rect x="428.8451" y="568.43725" width="86.59098" height="5.51022" transform="translate(3.15165 -2.59055) rotate(0.31542)" style="fill: #fff"/>
      <rect x="434.56127" y="573.94857" width="75.19743" height="125.41733" transform="translate(3.51205 -2.58966) rotate(0.31542)" style="fill: #3a3b3b"/>
      <rect x="431.53705" y="568.84019" width="3.03828" height="130.31039" transform="translate(3.4968 -2.37443) rotate(0.31542)" style="fill: #fff"/>
      <rect x="509.39271" y="569.2688" width="3.03828" height="130.31039" transform="translate(3.50034 -2.80303) rotate(0.31542)" style="fill: #fff"/>
    </g>
  </g>
  <g>
    <rect x="537.47694" y="697.93654" width="93.42711" height="6.909" transform="matrix(0.99998, 0.00551, -0.00551, 0.99998, 3.87011, -3.20543)" style="fill: #fff"/>
    <g>
      <rect x="541.99157" y="568.43725" width="86.59098" height="5.51022" transform="translate(3.15337 -3.21344) rotate(0.31542)" style="fill: #fff"/>
      <rect x="547.70774" y="573.94857" width="75.19743" height="125.41733" transform="translate(3.51376 -3.21255) rotate(0.31542)" style="fill: #3a3b3b"/>
      <rect x="544.68352" y="568.84019" width="3.03828" height="130.31039" transform="translate(3.49851 -2.99732) rotate(0.31542)" style="fill: #fff"/>
      <rect x="622.53918" y="569.2688" width="3.03828" height="130.31039" transform="translate(3.50205 -3.42592) rotate(0.31542)" style="fill: #fff"/>
    </g>
  </g>
  <g>
    <rect x="653.69115" y="697.93654" width="93.42711" height="6.909" transform="matrix(0.99998, 0.00551, -0.00551, 0.99998, 3.87187, -3.8452)" style="fill: #fff"/>
    <g>
      <rect x="658.20578" y="568.43725" width="86.59098" height="5.51022" transform="translate(3.15513 -3.85321) rotate(0.31542)" style="fill: #fff"/>
      <rect x="663.92195" y="573.94857" width="75.19743" height="125.41733" transform="translate(3.51552 -3.85233) rotate(0.31542)" style="fill: #3a3b3b"/>
      <rect x="660.89773" y="568.84019" width="3.03828" height="130.31039" transform="translate(3.50028 -3.6371) rotate(0.31542)" style="fill: #fff"/>
      <rect x="738.75339" y="569.2688" width="3.03828" height="130.31039" transform="translate(3.50382 -4.0657) rotate(0.31542)" style="fill: #fff"/>
    </g>
  </g>
  <g>
    <rect x="769.90536" y="697.93654" width="93.42711" height="6.909" transform="matrix(0.99998, 0.00551, -0.00551, 0.99998, 3.87364, -4.48498)" style="fill: #fff"/>
    <g>
      <rect x="774.41999" y="568.43725" width="86.59098" height="5.51022" transform="translate(3.15689 -4.49299) rotate(0.31542)" style="fill: #fff"/>
      <rect x="780.13616" y="573.94857" width="75.19743" height="125.41733" transform="translate(3.51728 -4.4921) rotate(0.31542)" style="fill: #3a3b3b"/>
      <rect x="777.11194" y="568.84019" width="3.03828" height="130.31039" transform="translate(3.50204 -4.27687) rotate(0.31542)" style="fill: #fff"/>
      <rect x="854.9676" y="569.2688" width="3.03828" height="130.31039" transform="translate(3.50558 -4.70547) rotate(0.31542)" style="fill: #fff"/>
    </g>
  </g>
  <rect x="399.62611" y="501.83855" width="491.2777" height="13.92048" style="fill: #010101;opacity: 0.09"/>
  <rect x="399.71318" y="458.55306" width="491.19062" height="13.92048" style="fill: #010101;opacity: 0.09"/>
  <rect x="385.8025" y="488.16971" width="515.67515" height="20.51044" style="fill: #f3f3f3"/>
  <rect x="385.8025" y="424.43022" width="515.67515" height="37.78809" style="fill: #f3f3f3"/>
</svg>
