<svg id="Calque_2" data-name="Calque 2" xmlns="http://www.w3.org/2000/svg" viewBox="0 0 1260 340.4">
  <defs>
    <style>
      .cls-1 {
        fill: #eee657;
      }

      .cls-2 {
        fill: #1dabb8;
      }

      .cls-3 {
        fill: #97ce68;
      }

      .cls-4 {
        fill: #83d6de;
      }
    </style>
  </defs>
  <title>formes_couleurs</title>
    <g id="formes">
      <polygon class="cls-1" points="215.5 71.9 157.9 340.4 281.6 340.4 411.5 111.9 215.5 71.9"/>
      <polygon class="cls-2" points="487.2 166.3 535.9 19.2 653.9 19.2 766.4 241.4 766.4 340.4 498.2 340.4 487.2 166.3"/>
      <polygon class="cls-3" points="245 340.4 427.6 0 579.7 340.4 245 340.4"/>
      <polygon class="cls-4" points="0 100.7 144.2 35.2 275.5 340.4 0 340.4 0 100.7"/>
      <polygon class="cls-1" points="734.7 340.4 745.9 120 844.8 19.2 908.3 204 831.8 340.4 734.7 340.4"/>
      <polygon class="cls-2" points="992.3 184.4 1053 106 1119 145.2 1136.2 260.8 1125.5 318.3 992.3 184.4"/>
      <polygon class="cls-3" points="1260 19.2 1175 19.2 1109 340.4 1260 340.4 1260 19.2"/>
      <polygon class="cls-4" points="1143.5 340.4 923.2 71.9 801.9 340.4 1143.5 340.4"/>
    </g>
</svg>
