<svg id="montgolfiere" xmlns="http://www.w3.org/2000/svg" viewBox="0 0 187.9 282.06">
  <title>montgolifiere2</title>
  <path d="M137.92,242.85l-11.3,1.59v0.07l-2.31.34,2.29,15.71,4.38-.64-2.29-15.71,2.24-.33,2.29,15.71,7.28-1.06-2.29-15.71-0.29,0v0Z" transform="translate(-6.05 -3.81)" style="fill: none"/>
  <path d="M127.64,244.39v-0.1l17.84-2.52v0l0.47-.07,3.54-.52,1.59-.23s36.27-67.89,42.6-156.68c3-42.42-19.92-60.32-44.71-67.44,41,47.72,2.67,185.26-3.52,224.74l-17.85,2.6c4.44-46,26.53-213-35.16-230l-0.24,0H92.1l-1.66.24L124,244.92Z" transform="translate(-6.05 -3.81)" style="fill: #4e53a4"/>
  <path d="M140.12,5.42l0,0,0.18,0Z" transform="translate(-6.05 -3.81)" style="fill: #fff"/>
  <path d="M127.61,244.19l17.85-2.6c6.19-39.49,44.48-177,3.52-224.74l-0.19-.05,0.33,0.71-0.69-.86c-13-3.7-31.57-3.83-44.31-3.35l0,0c-3.32.13-9.17,0.73-11.46,0.89l-0.18,0C154.14,31.18,132.05,198.21,127.61,244.19Z" transform="translate(-6.05 -3.81)" style="fill: #fff"/>
  <rect x="139.35" y="242.58" width="2.26" height="15.88" transform="translate(-40.68 19.04) rotate(-8.29)" style="fill: #484848"/>
  <rect x="129.83" y="243.97" width="2.26" height="15.88" transform="translate(-40.98 17.69) rotate(-8.29)" style="fill: #484848"/>
  <path d="M133.22,259.6l-2.24.33-4.38.64,0.29,2L144.21,260a1.92,1.92,0,0,1,2,1.77l1.48,10.14c0.58,4-1.72,7.62-5.1,8.12l-12.89,1.88,0.29,2,13.83-2c4-.58,6.74-4.91,6-9.62l-1.81-12.42a2.27,2.27,0,0,0-2.39-2.1l-2.93.43-2.24.33Z" transform="translate(-6.05 -3.81)" style="fill: #3e3e3e"/>
  <path d="M142.6,280.06c3.39-.49,5.68-4.15,5.1-8.12l-1.48-10.14a1.92,1.92,0,0,0-2-1.77l-17.32,2.52,2.82,19.38Z" transform="translate(-6.05 -3.81)" style="fill: #484848"/>
  <path d="M86.67,15c-41.3,29,17,188.26,33.63,230.43l3.88-.57,0.8-.12L91.42,14.31l-0.8.13S89.18,14.61,86.67,15Z" transform="translate(-6.05 -3.81)" style="fill: #4e53a4"/>
  <path d="M86.67,15c-41.3,29,17,188.26,33.63,230.43l3.88-.57,0.8-.12L91.42,14.31l-0.8.13S89.18,14.61,86.67,15Z" transform="translate(-6.05 -3.81)" style="fill: #010101;opacity: 0.09"/>
  <path d="M101.69,248.17c-19.33-35.76-82.82-156.5-64.29-216C52.52,23,76.18,17.19,86.4,15.06v0L85,15.33c-0.93.17-3.92,0.66-5,.89l0,0.1C68.75,18.9,50.36,24.14,37.07,32.18L37,32.4C14.48,46.15-3.61,70,11.76,110.79,43.15,194.09,96.29,249,96.29,249l2.31-.34,2.76-.4Z" transform="translate(-6.05 -3.81)" style="fill: #4e53a4"/>
  <path d="M101.69,248.17c-19.33-35.76-82.82-156.5-64.29-216C52.52,23,76.18,17.19,86.4,15.06v0L85,15.33c-0.93.17-3.92,0.66-5,.89l0,0.1C68.75,18.9,50.36,24.14,37.07,32.18L37,32.4C14.48,46.15-3.61,70,11.76,110.79,43.15,194.09,96.29,249,96.29,249l2.31-.34,2.76-.4Z" transform="translate(-6.05 -3.81)" style="fill: #010101;opacity: 0.09"/>
  <path d="M104.76,3.86l0.07,0h-0.34v0Z" transform="translate(-6.05 -3.81)" style="fill: #fff"/>
  <path d="M104.76,3.86l0.07,0h-0.34v0Z" transform="translate(-6.05 -3.81)" style="fill: #010101;opacity: 0.09"/>
  <path d="M119.92,245.38l0.05,0.13,0.33,0-0.05-.13Z" transform="translate(-6.05 -3.81)" style="fill: #fff"/>
  <path d="M119.92,245.38l0.05,0.13,0.33,0-0.05-.13Z" transform="translate(-6.05 -3.81)" style="fill: #010101;opacity: 0.09"/>
  <path d="M101.69,248.17l0.45-.07L113,246.52l3.54-.52,3.39-.49-0.05-.13,0.33,0,0.05,0.13C103.63,203.3,45.37,44,86.67,15l-0.26,0v0C76.18,17.19,52.52,23,37.4,32.13,18.86,91.67,82.36,212.41,101.69,248.17Z" transform="translate(-6.05 -3.81)" style="fill: #fff"/>
  <path d="M101.69,248.17l0.45-.07L113,246.52l3.54-.52,3.39-.49-0.05-.13,0.33,0,0.05,0.13C103.63,203.3,45.37,44,86.67,15l-0.26,0v0C76.18,17.19,52.52,23,37.4,32.13,18.86,91.67,82.36,212.41,101.69,248.17Z" transform="translate(-6.05 -3.81)" style="fill: #010101;opacity: 0.09"/>
  <polygon points="104.49 243.04 104.28 243.07 102.54 243.33 104.83 259.04 107.07 258.71 104.78 243 104.49 243.04" style="fill: #484848"/>
  <polygon points="104.49 243.04 104.28 243.07 102.54 243.33 104.83 259.04 107.07 258.71 104.78 243 104.49 243.04" style="fill: #010101;opacity: 0.09"/>
  <rect x="118.87" y="245.56" width="2.26" height="15.88" transform="translate(-41.33 16.12) rotate(-8.29)" style="fill: #484848"/>
  <rect x="118.87" y="245.56" width="2.26" height="15.88" transform="translate(-41.33 16.12) rotate(-8.29)" style="fill: #010101;opacity: 0.09"/>
  <path d="M117.81,283.67c-3.39.49-6.63-2.35-7.21-6.32l-1.48-10.14a1.92,1.92,0,0,1,1.43-2.27l17.32-2.52-0.29-2-5.33.78-2.24.33-6.91,1-2.24.33-2.37.34a2.27,2.27,0,0,0-1.69,2.69l1.81,12.42c0.69,4.71,4.53,8.08,8.54,7.49l13.83-2-0.29-2Z" transform="translate(-6.05 -3.81)" style="fill: #3e3e3e"/>
  <path d="M117.81,283.67c-3.39.49-6.63-2.35-7.21-6.32l-1.48-10.14a1.92,1.92,0,0,1,1.43-2.27l17.32-2.52-0.29-2-5.33.78-2.24.33-6.91,1-2.24.33-2.37.34a2.27,2.27,0,0,0-1.69,2.69l1.81,12.42c0.69,4.71,4.53,8.08,8.54,7.49l13.83-2-0.29-2Z" transform="translate(-6.05 -3.81)" style="fill: #010101;opacity: 0.09"/>
  <path d="M109.13,267.21l1.48,10.14c0.58,4,3.82,6.82,7.21,6.32l12.89-1.88-2.82-19.38-17.32,2.52A1.92,1.92,0,0,0,109.13,267.21Z" transform="translate(-6.05 -3.81)" style="fill: #484848"/>
  <path d="M109.13,267.21l1.48,10.14c0.58,4,3.82,6.82,7.21,6.32l12.89-1.88-2.82-19.38-17.32,2.52A1.92,1.92,0,0,0,109.13,267.21Z" transform="translate(-6.05 -3.81)" style="fill: #010101;opacity: 0.09"/>
</svg>
