<svg id="montgolfiere" xmlns="http://www.w3.org/2000/svg" viewBox="0 0 188.1 273.29">
  <title>montgolifiere</title>
  <path d="M98.4,247.28L87.06,246l0,0.07-2.32-.24-1.65,15.79,4.41,0.46,1.65-15.79,2.25,0.23-1.65,15.79L97,263.13l1.65-15.79-0.3,0v0Z" transform="translate(-7.95 -13.36)" style="fill: none"/>
  <path d="M121.91,16c-3.42-.62-9.2-1.32-11.15-1.56,2.26,0.41,8.08,1.27,11.33,2Z" transform="translate(-7.95 -13.36)" style="fill: #c54c45"/>
  <path d="M88.06,246.25l0-.1L106,248.1v0l0.47,0,3.56,0.37,1.6,0.17s51.85-56.88,79.83-141.39C204.81,66.93,187,43.94,164.7,30.94c28,56.33-43,180.22-58.69,217L88.08,246c15.61-43.48,78.1-199.95,22.5-231.6l-0.24,0-0.12,0h0l-1.67-.18L84.4,245.87Z" transform="translate(-7.95 -13.36)" style="fill: #c54c45"/>
  <path d="M164.22,30.6q0.23,0.5.45,1l-0.14-.77,0.17,0.1-0.15-.3c-11.77-6.84-30-11.57-42.47-14.22l0,0C134.57,19.13,152.56,23.83,164.22,30.6Z" transform="translate(-7.95 -13.36)" style="fill: #fff"/>
  <path d="M110.55,14.43l0,0,0.18,0Z" transform="translate(-7.95 -13.36)" style="fill: #fff"/>
  <path d="M88.08,246L106,247.92c15.72-36.75,86.65-160.64,58.69-217l-0.17-.1,0.14,0.77q-0.22-.51-0.45-1c-11.66-6.77-29.65-11.48-42.12-14.14l0,0c-3.25-.69-9.07-1.55-11.33-2l-0.18,0C166.18,46.1,103.69,202.57,88.08,246Z" transform="translate(-7.95 -13.36)" style="fill: #fff"/>
  <rect x="91.06" y="254.21" width="15.88" height="2.26" transform="translate(-173.19 313.97) rotate(-84.05)" style="fill: #484848"/>
  <rect x="81.49" y="253.22" width="15.88" height="2.26" transform="translate(-180.77 303.56) rotate(-84.05)" style="fill: #484848"/>
  <path d="M89.73,262.36l-2.25-.23-4.41-.46-0.21,2,17.41,1.82a1.92,1.92,0,0,1,1.52,2.21l-1.06,10.19c-0.42,4-3.54,7-6.94,6.61l-13-1.35-0.21,2,13.9,1.45c4,0.42,7.74-3.11,8.23-7.84l1.3-12.48a2.27,2.27,0,0,0-1.8-2.62l-2.95-.31L97,263.13Z" transform="translate(-7.95 -13.36)" style="fill: #3e3e3e"/>
  <path d="M93.79,284.5c3.4,0.35,6.53-2.62,6.94-6.61l1.06-10.19a1.92,1.92,0,0,0-1.52-2.21l-17.41-1.82-2,19.48Z" transform="translate(-7.95 -13.36)" style="fill: #484848"/>
  <path d="M104.76,13.86c-47.17,18-29.87,186.65-24.08,231.62l3.9,0.41L85.39,246,109.54,14.32l-0.81-.07S107.29,14.06,104.76,13.86Z" transform="translate(-7.95 -13.36)" style="fill: #c54c45"/>
  <path d="M104.76,13.86c-47.17,18-29.87,186.65-24.08,231.62l3.9,0.41L85.39,246,109.54,14.32l-0.81-.07S107.29,14.06,104.76,13.86Z" transform="translate(-7.95 -13.36)" style="fill: #010101;opacity: 0.09"/>
  <path d="M62,243.53C52,204.11,20.19,71.47,52.79,18.31c16.9-5.14,41.26-4.95,51.7-4.5v0l-1.41-.06c-0.94-.06-4-0.33-5.1-0.38l-0.06.08c-11.49-.24-30.6.32-45.46,4.84l-0.15.18C27.14,26.26,3.73,45,8.6,88.24c9.94,88.47,48,154.72,48,154.72l2.32,0.24,2.77,0.29Z" transform="translate(-7.95 -13.36)" style="fill: #c54c45"/>
  <path d="M62,243.53C52,204.11,20.19,71.47,52.79,18.31c16.9-5.14,41.26-4.95,51.7-4.5v0l-1.41-.06c-0.94-.06-4-0.33-5.1-0.38l-0.06.08c-11.49-.24-30.6.32-45.46,4.84l-0.15.18C27.14,26.26,3.73,45,8.6,88.24c9.94,88.47,48,154.72,48,154.72l2.32,0.24,2.77,0.29Z" transform="translate(-7.95 -13.36)" style="fill: #010101;opacity: 0.09"/>
  <path d="M104.76,13.86l0.07,0h-0.34v0Z" transform="translate(-7.95 -13.36)" style="fill: #fff"/>
  <path d="M104.76,13.86l0.07,0h-0.34v0Z" transform="translate(-7.95 -13.36)" style="fill: #010101;opacity: 0.09"/>
  <path d="M80.33,245.31l0,0.14,0.33,0,0-.14Z" transform="translate(-7.95 -13.36)" style="fill: #fff"/>
  <path d="M80.33,245.31l0,0.14,0.33,0,0-.14Z" transform="translate(-7.95 -13.36)" style="fill: #010101;opacity: 0.09"/>
  <path d="M62,243.53l0.45,0,11,1.14,3.56,0.37,3.4,0.35,0-.14,0.33,0,0,0.14c-5.79-45-23.09-213.66,24.08-231.62l-0.27,0v0c-10.44-.45-34.8-0.64-51.7,4.5C20.19,71.47,52,204.11,62,243.53Z" transform="translate(-7.95 -13.36)" style="fill: #fff"/>
  <path d="M62,243.53l0.45,0,11,1.14,3.56,0.37,3.4,0.35,0-.14,0.33,0,0,0.14c-5.79-45-23.09-213.66,24.08-231.62l-0.27,0v0c-10.44-.45-34.8-0.64-51.7,4.5C20.19,71.47,52,204.11,62,243.53Z" transform="translate(-7.95 -13.36)" style="fill: #010101;opacity: 0.09"/>
  <polygon points="62.93 231.07 62.72 231.05 60.96 230.87 59.31 246.66 61.57 246.9 63.21 231.1 62.93 231.07" style="fill: #484848"/>
  <polygon points="62.93 231.07 62.72 231.05 60.96 230.87 59.31 246.66 61.57 246.9 63.21 231.1 62.93 231.07" style="fill: #010101;opacity: 0.09"/>
  <rect x="70.47" y="252.07" width="15.88" height="2.26" transform="translate(-189.51 291.57) rotate(-84.05)" style="fill: #484848"/>
  <rect x="70.47" y="252.07" width="15.88" height="2.26" transform="translate(-189.51 291.57) rotate(-84.05)" style="fill: #010101;opacity: 0.09"/>
  <path d="M68.87,281.9c-3.4-.35-5.85-3.91-5.43-7.9l1.06-10.19A1.92,1.92,0,0,1,66.45,262l17.41,1.82,0.21-2-5.35-.56L76.46,261l-6.94-.72L67.26,260l-2.38-.25a2.27,2.27,0,0,0-2.3,2.19l-1.3,12.48c-0.49,4.73,2.4,8.94,6.44,9.36l13.9,1.45,0.21-2Z" transform="translate(-7.95 -13.36)" style="fill: #3e3e3e"/>
  <path d="M68.87,281.9c-3.4-.35-5.85-3.91-5.43-7.9l1.06-10.19A1.92,1.92,0,0,1,66.45,262l17.41,1.82,0.21-2-5.35-.56L76.46,261l-6.94-.72L67.26,260l-2.38-.25a2.27,2.27,0,0,0-2.3,2.19l-1.3,12.48c-0.49,4.73,2.4,8.94,6.44,9.36l13.9,1.45,0.21-2Z" transform="translate(-7.95 -13.36)" style="fill: #010101;opacity: 0.09"/>
  <path d="M64.5,263.81L63.44,274c-0.42,4,2,7.55,5.43,7.9l13,1.35,2-19.48L66.45,262A1.92,1.92,0,0,0,64.5,263.81Z" transform="translate(-7.95 -13.36)" style="fill: #484848"/>
  <path d="M64.5,263.81L63.44,274c-0.42,4,2,7.55,5.43,7.9l13,1.35,2-19.48L66.45,262A1.92,1.92,0,0,0,64.5,263.81Z" transform="translate(-7.95 -13.36)" style="fill: #010101;opacity: 0.09"/>
</svg>
