<?xml version="1.0" encoding="utf-8"?>
<!-- Generator: Adobe Illustrator 18.1.1, SVG Export Plug-In . SVG Version: 6.00 Build 0)  -->
<svg version="1.1" id="soleil" xmlns="http://www.w3.org/2000/svg" xmlns:xlink="http://www.w3.org/1999/xlink" x="0px" y="0px"
	 viewBox="0 0 50 50" enable-background="new 0 0 50 50" xml:space="preserve">
<circle fill="#FFF35F" cx="25.08" cy="25.2" r="15.95"/>
<path fill="none" d="M41.03,25.2c0,8.81-7.14,15.95-15.95,15.95v1.78c9.74-0.04,17.62-7.95,17.62-17.69S34.82,7.59,25.08,7.55v1.7
	C33.89,9.25,41.03,16.39,41.03,25.2z"/>
<path fill="#FFE252" d="M45.71,27.53c0,0,2.15-1,2.04-1.87c0.01-0.83-1.74-2.08-1.74-2.08c-0.51-0.31-0.19-0.49-0.04-0.7
	c0,0,1.88-1.45,1.57-2.28c-0.17-0.81-2.69-1.58-2.69-1.58c-0.57-0.19-0.29-0.43-0.19-0.68c0,0,1.51-1.83,1.03-2.57
	c-0.35-0.75-2.71-1-2.71-1c-0.6-0.06-0.38-0.36-0.34-0.62c0,0,1.06-2.12,0.44-2.73c-0.51-0.66-2.87-0.38-2.87-0.38
	c-0.59,0.07-0.45-0.26-0.47-0.53c0,0,0.57-2.3-0.18-2.76c-0.64-0.53-2.88,0.27-2.88,0.27c-0.56,0.2-0.5-0.16-0.57-0.41
	c0,0,0.04-2.37-0.79-2.65c-0.74-0.37-2.75,0.9-2.75,0.9c-0.51,0.32-0.52-0.04-0.65-0.27c0,0-0.48-2.32-1.36-2.41
	c-0.8-0.2-2.48,1.49-2.48,1.49c-0.42,0.43-0.52,0.07-0.69-0.12c0,0-1.18-2.16-2.05-2.05c-0.08,0-0.17,0.02-0.26,0.06
	c-0.85,0.33-2.05,1.98-2.05,1.98c-0.31,0.51-0.48,0.2-0.7,0.05c0,0-1.48-1.85-2.3-1.54c-0.81,0.18-1.54,2.44-1.54,2.44
	c-0.18,0.57-0.43,0.3-0.67,0.2c0,0-1.85-1.48-2.58-0.99c-0.75,0.36-0.96,2.73-0.96,2.73c-0.05,0.6-0.35,0.39-0.61,0.35
	c0,0-2.13-1.03-2.74-0.39c-0.65,0.52-0.33,2.87-0.33,2.87c0.08,0.59-0.26,0.45-0.52,0.48c0,0-2.31-0.53-2.76,0.22
	c-0.52,0.65,0.31,2.87,0.31,2.87c0.21,0.56-0.15,0.5-0.4,0.58c0,0-2.37-0.01-2.64,0.83c-0.36,0.75,0.94,2.73,0.94,2.73
	c0.33,0.5-0.04,0.52-0.26,0.65c0,0-2.31,0.52-2.39,1.39c-0.19,0.81,1.52,2.46,1.52,2.46c0.43,0.41,0.08,0.52-0.11,0.7
	c0,0-2.14,1.02-2.02,1.89c0,0.83,2.03,2.06,2.03,2.06c0.51,0.31,0.19,0.49,0.05,0.7c0,0-1.86,1.47-1.55,2.29
	c0.18,0.81,2.25,1.56,2.25,1.56c0.57,0.19,0.3,0.43,0.2,0.68c0,0-1.49,1.84-1,2.58c0.35,0.75,2.45,1.03,2.45,1.03
	c0.6,0.06,0.38,0.35,0.35,0.61c0,0-1.04,2.13-0.41,2.74c0.51,0.65,3.33,0.3,3.33,0.3c0.59-0.08,0.45,0.26,0.47,0.52
	c0,0-0.54,2.31,0.21,2.76c0.64,0.52,2.88-0.3,2.88-0.3c0.56-0.21,0.5,0.15,0.58,0.4c0,0-0.02,2.37,0.82,2.64
	c0.74,0.37,2.74-0.93,2.74-0.93c0.5-0.33,0.52,0.04,0.65,0.27c0,0,0.51,2.31,1.38,2.4c0.81,0.19,2.46-1.51,2.46-1.51
	c0.42-0.43,0.52-0.08,0.7,0.11c0,0,1.01,2.14,1.88,2.03c0.12,0,0.25-0.04,0.38-0.11c0.78-0.42,1.69-1.91,1.69-1.91
	c0.31-0.51,0.49-0.19,0.7-0.04c0,0,1.46,1.87,2.28,1.56c0.81-0.18,1.57-2.43,1.57-2.43c0.19-0.57,0.43-0.29,0.68-0.2
	c0,0,1.84,1.5,2.57,1.02c0.75-0.35,0.99-2.72,0.99-2.72c0.06-0.6,0.36-0.38,0.62-0.34c0,0,2.12,1.05,2.73,0.42
	c0.65-0.51,0.36-2.87,0.36-2.87c-0.07-0.59,0.26-0.45,0.52-0.47c0,0,2.3,0.56,2.76-0.2c0.53-0.64-0.28-2.88-0.28-2.88
	c-0.2-0.56,0.16-0.5,0.41-0.58c0,0,2.37,0.03,2.65-0.8c0.37-0.74-0.91-2.74-0.91-2.74c-0.32-0.5,0.04-0.52,0.27-0.65
	c0,0,2.32-0.49,2.4-1.37c0.2-0.81-1.5-2.47-1.5-2.47C45.17,27.81,45.52,27.71,45.71,27.53z M25.08,42.94c-0.02,0-0.05,0-0.07,0
	c-9.77,0-17.7-7.92-17.7-17.7c0-9.77,7.92-17.7,17.7-17.7c0.02,0,0.05,0,0.07,0c9.74,0.04,17.63,7.95,17.63,17.69
	S34.82,42.9,25.08,42.94z"/>
</svg>
